/* XPM */
static char *_15ec51e5dfc4307f3adcc0ca813bb79MaZdZsbkS23J5RSp[] = {
/* columns rows colors chars-per-pixel */
"25 28 2 1 ",
"  c #BD4C4C",
". c white",
/* pixels */
".........................",
".                       .",
".                       .",
".                       .",
".                       .",
".                       .",
".                       .",
".                       .",
".                       .",
".                       .",
".                       .",
".                       .",
".                       .",
".                       .",
".                       .",
".                       .",
".                       .",
".                       .",
".                       .",
".                       .",
".                       .",
".                       .",
".                       .",
".                       .",
".                       .",
".                       .",
".                    .. .",
"........................."
};
