/* XPM */
static char *caceec8cc3ed4f6c879fb16a431d601dYPfLEFVfsYEDSPXJ[] = {
/* columns rows colors chars-per-pixel */
"64 64 2 1 ",
"  c black",
". c #00F1FF",
/* pixels */
"................................................................",
"................................................................",
"................................................................",
"................................................................",
"................................................................",
"................................................................",
"................................................................",
"................................................................",
"................................................................",
"................................................................",
"................................................................",
"................................................................",
"................................................................",
"................................................................",
"............         ...........................................",
"............ ........      .....................................",
"............ ..............    .................................",
"............ .................................... ..............",
"............ .................................... ..............",
"............ ...............................  ... ..............",
"............ ............................... ....  .............",
"............ ............................... ....  .............",
"............ ............................... ...   .............",
"............ .............................. .... .. ............",
"............ .............................. .... .. ............",
"............ .............................. ... ... ............",
"............ ............................. ...  .... ...........",
"............ ............................. ... ..... ...........",
"............  ............................ ... ..... ...........",
"............ .        .................... .. ....... ..........",
"............ .........   ................  .. ....... ..........",
"............ ............................ .. ......... .........",
"............ ............................ . .......... .........",
"............ ............................ . ........... ........",
"............ ............................  ............ ........",
"............ ............................  ............ ........",
"............ ...........................  .............. .......",
"............ ...........................  .............. .......",
"............ ........................... .          ....  ......",
"............ ..........................   ..........     .......",
"............ .......................... ................. ......",
"............ .........................  ................. ......",
"............ ......................... .................. ......",
"............ ........................  ................... .....",
"............ ........................  ................... .....",
"............ ........................  ................... .....",
"............ .......................  ..................... ....",
"............  ......................  ..................... ....",
".............     ..................  ..................... ....",
"..................         .........  ..................... ....",
"...........................    .....  .....................  ...",
"....................................  ...................... ...",
"....................................  ...................... ...",
"..................................... ...................... ...",
"............................................................ ...",
"............................................................ ...",
"............................................................ ...",
"............................................................  ..",
"............................................................. ..",
"............................................................. ..",
"................................................................",
"................................................................",
"................................................................",
"................................................................"
};
