/* XPM */
static char *b4774845e89d43c6e543d6f377dd5aa3HlEep1jDxCSKNA4h[] = {
/* columns rows colors chars-per-pixel */
"64 64 2 1 ",
"  c black",
". c red",
/* pixels */
"................................................................",
"................................................................",
"................................................................",
"................................................................",
"................................................................",
"................................................................",
"................................................................",
"................................................................",
"................................................................",
"................................................................",
"................................................................",
"............. ................. ................................",
".............  ................ ................................",
".............   ............... ................................",
".............   ............... ................................",
".............  . .............. ................................",
".............  . .............. ........... ....................",
"............  ... ............. .......... .....................",
"............  ... ............. .........     ..................",
"............  ... ............. ........ ....  .................",
"............  .... ............ ........ ......  ...............",
"............  .... ............ ....... .........   ............",
"............ ...... ........... ...... ............  ...........",
"...........  ...... ........... ...... .............. ..........",
"...........  ....... .......... ..... ................ .........",
"...........  ....... .......... ..... ................ .........",
"...........  ........ ......... .... ................. .........",
"...........  ........ .......... ... ................. .........",
"...........  ......... ......... ... ................. .........",
"...........  ......... ......... ... ................. .........",
"........... ........... ........ ... ................. .........",
"........... ........... ........ ... ................. .........",
"........... ............ ....... ... ................. .........",
"........... ............ ....... ... ................ ..........",
"........... ............ ....... ... ................ ..........",
"........... ............. ...... ... ................ ..........",
"........... ............. ...... ... ................ ..........",
"........... ............. ...... ... ............... ...........",
"........... .............. ..... .... ............. ............",
"........... .............. ..... .... ............. ............",
"........... ............... .... .... ............. ............",
"........... ............... .... ..... ............ ............",
"...........  ............... .... .... ........... .............",
"...........  ............... .... ..... ......... ..............",
"...........  ................ ... ......  ......  ..............",
"...........  ................ ... .......  ...  ................",
"...........  ................ ... .........    .................",
"...........  ................. .. ..............................",
"...........  ................. .. ..............................",
"...........  .................. . ..............................",
"...........  ................... . .............................",
"...........  ................... . .............................",
"...........  ....................  .............................",
"............ ....................  .............................",
"............ ....................  .............................",
"............ ...................................................",
"............ ...................................................",
"............ ...................................................",
"................................................................",
"................................................................",
"................................................................",
"................................................................",
"................................................................",
"................................................................"
};
