/* XPM */
static char *f82c6e53606e46ecb16b919bde8bf563U9mbbIedMPHXTIBr[] = {
/* columns rows colors chars-per-pixel */
"32 32 2 1 ",
"  c None",
". c #BB5E5E",
/* pixels */
"                                ",
"                                ",
"                                ",
"                                ",
"                                ",
"     ......            ..       ",
"    .    ..          ......     ",
"   ..     ..       ..    ..     ",
"   ..    ..        .     .      ",
"    ......         .     .      ",
"                   .    ..      ",
"                   ......       ",
"                                ",
"                                ",
"                                ",
"             ..                 ",
"             ..                 ",
"                                ",
"                                ",
"                                ",
"     .                          ",
"     .                          ",
"      .                 .       ",
"       .                .       ",
"        .              ..       ",
"         ..            .        ",
"           .          ..        ",
"            ....   ...          ",
"                ...             ",
"                                ",
"                                ",
"                                "
};
