/* XPM */
static char *_18fae0a8fcd46edcb7a29ff11c8717cq5oHxHHRUMOwNSMW[] = {
/* columns rows colors chars-per-pixel */
"64 64 2 1 ",
"  c black",
". c #FFBB00",
/* pixels */
"                                                                ",
" .............................................................. ",
" .............................................................. ",
" .............................................................. ",
" .............................................................. ",
" .............................................................. ",
" .............................................................. ",
" .............................................................. ",
" .............................................................. ",
" .............................................................. ",
" .............................................................. ",
" ...............   ............................................ ",
" ..............  ..   ......................................... ",
" .............  ............................................... ",
" ............ ................................................. ",
" ........... .................................................. ",
" ..........  .................................................. ",
" .........  ................................................... ",
" ......... .................................................... ",
" ........ ..................................................... ",
" ........ ................................     ................ ",
" ........ .............................   ...   ............... ",
" ........ ...........................  ........   ............. ",
" ........ .......................... ............   ........... ",
" .........  ....................... ...............  .......... ",
" ...........  ..................... ................  ......... ",
" ............. ................... ..................  ........ ",
" ..............   ............... .................... ........ ",
" ................   ............. ..................... ....... ",
" ..................  ........... ...................... ....... ",
" ...................  .......... ...................... ....... ",
" .................... .......... ...................... ....... ",
" ..................... ......... ...................... ....... ",
" ..................... ......... ...................... ....... ",
" ...................... ........ ...................... ....... ",
" ...................... ........ ...................... ....... ",
" ...................... ........ ...................... ....... ",
" ......................  ....... ...................... ....... ",
" ...................... ........ ...................... ....... ",
" ...................... ........ ..................... ........ ",
" ..................... ......... ..................... ........ ",
" ....................  .......... .................... ........ ",
" ................... ............ ................... ......... ",
" .................  ............. .................. .......... ",
" ...........      ................ ................. .......... ",
" ...........   ................... ................ ........... ",
" .................................. ............... ........... ",
" .................................. .............. ............ ",
" ................................... ............ ............. ",
" ................................... ............ ............. ",
" ....................................  ........  .............. ",
" ......................................  ...   ................ ",
" ........................................   ................... ",
" .............................................................. ",
" .............................................................. ",
" .............................................................. ",
" .............................................................. ",
" .............................................................. ",
" .............................................................. ",
" .............................................................. ",
" .............................................................. ",
" .............................................................. ",
" .............................................................. ",
" .............................................................. "
};
