/* XPM */
static char *_857a91f8e8c4222e41489c9ee3682ddECZfmWPEBapUtcI6[] = {
/* columns rows colors chars-per-pixel */
"64 64 2 1 ",
"  c black",
". c #5BFF00",
/* pixels */
"................................................................",
"................................................................",
"................................................................",
"................................................................",
"................................................................",
"................................................................",
"................................................................",
"................................................................",
"................................................................",
"................................................................",
"................................................................",
"................................................................",
"................................................................",
"........................................ .......................",
"........................................ .......................",
"....................................... ........................",
"....................................... ........................",
"....................................... ........................",
"......... ............................. ........................",
"......... ............................ .........................",
".......... ........................... .      .......  .........",
".......... .......................... ... ....        ..........",
"........... ......................... ... ......................",
"........... ............. ........... ... ......................",
"........... ............. .......... .... ......................",
"............ ............ .......... .... ......................",
"............ ............  ......... .... ......................",
"............. .......... . ........ ..... ......................",
".............. ......... . ........ ..... .......  .............",
".............. ........ ... ...... ......        ...............",
"............... ....... ... ...... ...... ......................",
"............... ....... ... ..... ....... ......................",
"................ ...... .... .... ....... ......................",
"................ ...... .... .... ....... ......................",
"................. .... ..... .... ....... ......................",
".................. ... ..... ... ........ ......................",
"..................  . ...... ... ........ ......................",
"................... . ....... . ......... ......................",
"................... . ....... . ......... ......................",
"....................  .......  ...........        ..............",
"....................  .......  ...................  ............",
"................................................................",
"................................................................",
"................................................................",
"................................................................",
"................................................................",
"................................................................",
"................................................................",
"................................................................",
"................................................................",
"................................................................",
"................................................................",
"................................................................",
"................................................................",
"................................................................",
"................................................................",
"................................................................",
"................................................................",
"................................................................",
"................................................................",
"................................................................",
"................................................................",
"................................................................",
"................................................................"
};
